<?xml version="1.0" standalone="no"?>
<!DOCTYPE svg PUBLIC "-//W3C//DTD SVG 20010904//EN"
 "http://www.w3.org/TR/2001/REC-SVG-20010904/DTD/svg10.dtd">
<svg version="1.0" xmlns="http://www.w3.org/2000/svg"
 width="300.000000pt" height="48.000000pt" viewBox="0 0 300.000000 48.000000"
 preserveAspectRatio="xMidYMid meet">
<metadata>
Created by potrace 1.10, written by Peter Selinger 2001-2011
</metadata>
<g transform="translate(0.000000,48.000000) scale(0.100000,-0.100000)"
fill="#000000" stroke="none">
<path d="M86 451 c-39 -26 -55 -57 -56 -108 0 -60 41 -104 130 -138 71 -27 87
-46 75 -85 -12 -39 -108 -39 -150 0 l-21 20 -29 -30 c-25 -26 -26 -31 -14 -46
24 -29 91 -54 147 -54 89 0 148 45 157 121 9 63 -19 103 -93 135 -101 44 -107
48 -110 79 -7 54 55 72 117 34 l34 -21 25 26 c22 21 24 27 12 41 -40 48 -168
63 -224 26z"/>
<path d="M1214 460 c-11 -4 -33 -23 -48 -41 -55 -66 -17 -171 73 -200 20 -6
53 -20 74 -31 30 -15 37 -24 37 -48 0 -52 -75 -68 -139 -29 l-34 21 -29 -29
-29 -30 42 -28 c55 -39 155 -47 208 -17 42 23 71 74 71 125 0 51 -44 96 -125
126 -33 12 -65 27 -72 33 -21 17 -16 66 8 79 27 14 86 5 111 -17 18 -17 20
-17 50 13 l30 31 -44 26 c-35 20 -57 26 -104 25 -32 0 -68 -4 -80 -9z"/>
<path d="M2323 454 c-104 -52 -137 -271 -55 -373 66 -83 187 -96 260 -28 48
45 66 95 66 187 0 110 -33 178 -106 216 -36 19 -125 17 -165 -2z m121 -64
c112 -42 85 -300 -32 -300 -72 0 -106 47 -106 151 0 73 23 125 65 146 29 15
40 16 73 3z"/>
<path d="M2717 452 c-69 -46 -105 -145 -92 -251 12 -93 66 -171 131 -187 44
-11 120 2 154 26 111 79 107 327 -6 404 -49 33 -143 37 -187 8z m132 -66 c42
-22 64 -82 59 -160 -6 -105 -62 -161 -132 -132 -49 20 -71 66 -70 146 1 123
64 187 143 146z"/>
<path d="M410 321 c-40 -21 -42 -27 -18 -60 16 -22 18 -22 39 -7 34 24 85 21
103 -6 24 -34 20 -38 -34 -38 -61 0 -111 -19 -134 -51 -45 -64 5 -149 87 -149
30 0 53 7 71 21 20 16 26 17 26 6 0 -10 13 -16 36 -19 l35 -4 -3 134 -3 134
-33 29 c-27 24 -41 29 -85 29 -32 0 -66 -7 -87 -19z m135 -170 c10 -17 -17
-59 -45 -71 -34 -14 -70 1 -70 29 0 25 18 39 60 44 19 2 38 5 42 5 4 1 9 -2
13 -7z"/>
<path d="M660 176 l0 -163 38 1 37 1 5 115 c5 111 6 115 32 129 24 14 28 14
47 -3 19 -17 21 -31 21 -130 l0 -111 40 0 40 0 0 111 c0 95 3 113 18 127 23
21 46 22 66 1 13 -12 16 -39 16 -127 l0 -112 37 1 38 1 3 94 c4 124 -4 171
-33 203 -36 39 -122 33 -148 -11 -7 -11 -13 -9 -32 11 -30 33 -90 35 -128 6
-25 -20 -25 -20 -20 0 5 18 0 20 -36 20 l-41 0 0 -164z"/>
<path d="M1525 324 c-45 -23 -47 -28 -25 -57 20 -25 23 -26 43 -12 35 24 84
19 103 -10 9 -14 14 -28 11 -31 -3 -3 -32 -7 -65 -8 -95 -4 -141 -49 -127
-123 13 -69 110 -98 171 -51 21 17 26 18 22 6 -5 -13 1 -17 33 -20 l40 -4 -3
134 -3 134 -33 29 c-27 24 -41 29 -85 29 -28 0 -65 -7 -82 -16z m124 -206
c-22 -49 -91 -60 -104 -17 -10 29 11 48 58 51 53 4 61 -2 46 -34z"/>
<path d="M1770 178 l0 -164 40 1 40 0 0 112 c0 108 1 113 24 128 19 13 29 14
45 6 18 -10 21 -22 23 -128 l3 -116 37 -1 36 -1 4 113 c3 99 6 116 22 128 25
18 41 18 60 -2 13 -12 16 -39 16 -128 l0 -112 40 1 40 0 0 118 c0 167 -20 207
-105 207 -26 0 -44 -8 -62 -27 -17 -16 -29 -21 -31 -14 -15 45 -91 56 -136 20
-26 -20 -27 -20 -24 -3 2 15 -4 20 -34 22 l-38 3 0 -163z"/>
</g>
</svg>
